<mxfile host="app.diagrams.net" modified="2021-09-03T10:10:37.417Z" agent="5.0 (Macintosh; Intel Mac OS X 10_15_7) AppleWebKit/537.36 (KHTML, like Gecko) Chrome/92.0.4515.159 Safari/537.36" etag="VL0o6Znakh37Uy-9QxkX" version="15.0.6" type="github">
  <diagram id="Zc-aLJUotjYagh2v-7LP" name="Page-1">
    <mxGraphModel dx="946" dy="526" grid="1" gridSize="10" guides="1" tooltips="1" connect="1" arrows="1" fold="1" page="1" pageScale="1" pageWidth="1100" pageHeight="850" background="#114B5F" math="0" shadow="0">
      <root>
        <mxCell id="0" />
        <mxCell id="1" parent="0" />
        <mxCell id="RYEuACBHmjROumvNC1AI-35" value="" style="edgeStyle=orthogonalEdgeStyle;curved=0;rounded=1;sketch=0;orthogonalLoop=1;jettySize=auto;html=1;fontColor=#E4FDE1;strokeColor=#028090;fillColor=#F45B69;" parent="1" source="RYEuACBHmjROumvNC1AI-1" target="RYEuACBHmjROumvNC1AI-33" edge="1">
          <mxGeometry relative="1" as="geometry" />
        </mxCell>
        <mxCell id="RYEuACBHmjROumvNC1AI-1" value="Kafka Logger Service" style="rounded=1;whiteSpace=wrap;html=1;fillColor=#F45B69;strokeColor=#028090;fontColor=#E4FDE1;" parent="1" vertex="1">
          <mxGeometry x="145" y="130" width="120" height="60" as="geometry" />
        </mxCell>
        <mxCell id="RYEuACBHmjROumvNC1AI-2" value="Log and error enabled" style="rhombus;whiteSpace=wrap;html=1;fillColor=#F45B69;strokeColor=#028090;fontColor=#E4FDE1;" parent="1" vertex="1">
          <mxGeometry x="155" y="250" width="100" height="100" as="geometry" />
        </mxCell>
        <mxCell id="RYEuACBHmjROumvNC1AI-7" value="" style="endArrow=classic;html=1;labelBackgroundColor=#114B5F;strokeColor=#028090;fontColor=#E4FDE1;" parent="1" edge="1">
          <mxGeometry relative="1" as="geometry">
            <mxPoint x="255" y="299.5" as="sourcePoint" />
            <mxPoint x="355" y="299.5" as="targetPoint" />
          </mxGeometry>
        </mxCell>
        <mxCell id="RYEuACBHmjROumvNC1AI-8" value="Yes" style="edgeLabel;resizable=0;html=1;align=center;verticalAlign=middle;labelBackgroundColor=#114B5F;fontColor=#E4FDE1;" parent="RYEuACBHmjROumvNC1AI-7" connectable="0" vertex="1">
          <mxGeometry relative="1" as="geometry" />
        </mxCell>
        <mxCell id="RYEuACBHmjROumvNC1AI-9" value="" style="endArrow=classic;html=1;exitX=0.5;exitY=1;exitDx=0;exitDy=0;labelBackgroundColor=#114B5F;strokeColor=#028090;fontColor=#E4FDE1;" parent="1" source="RYEuACBHmjROumvNC1AI-2" edge="1">
          <mxGeometry relative="1" as="geometry">
            <mxPoint x="265" y="309.5" as="sourcePoint" />
            <mxPoint x="205" y="450" as="targetPoint" />
          </mxGeometry>
        </mxCell>
        <mxCell id="RYEuACBHmjROumvNC1AI-10" value="No" style="edgeLabel;resizable=0;html=1;align=center;verticalAlign=middle;labelBackgroundColor=#114B5F;fontColor=#E4FDE1;" parent="RYEuACBHmjROumvNC1AI-9" connectable="0" vertex="1">
          <mxGeometry relative="1" as="geometry" />
        </mxCell>
        <mxCell id="RYEuACBHmjROumvNC1AI-11" value="" style="endArrow=classic;html=1;labelBackgroundColor=#114B5F;strokeColor=#028090;fontColor=#E4FDE1;" parent="1" edge="1">
          <mxGeometry relative="1" as="geometry">
            <mxPoint x="205" y="190" as="sourcePoint" />
            <mxPoint x="204.5" y="250" as="targetPoint" />
          </mxGeometry>
        </mxCell>
        <mxCell id="RYEuACBHmjROumvNC1AI-13" value="List" style="swimlane;fontStyle=0;childLayout=stackLayout;horizontal=1;startSize=26;horizontalStack=0;resizeParent=1;resizeParentMax=0;resizeLast=0;collapsible=1;marginBottom=0;fillColor=#F45B69;strokeColor=#028090;fontColor=#E4FDE1;" parent="1" vertex="1">
          <mxGeometry x="130" y="450" width="150" height="90" as="geometry" />
        </mxCell>
        <mxCell id="RYEuACBHmjROumvNC1AI-14" value="module would do nothing" style="text;strokeColor=none;fillColor=none;align=left;verticalAlign=top;spacingLeft=4;spacingRight=4;overflow=hidden;rotatable=0;points=[[0,0.5],[1,0.5]];portConstraint=eastwest;fontColor=#E4FDE1;" parent="RYEuACBHmjROumvNC1AI-13" vertex="1">
          <mxGeometry y="26" width="150" height="26" as="geometry" />
        </mxCell>
        <mxCell id="RYEuACBHmjROumvNC1AI-16" value="No use of having this &#xa;module" style="text;strokeColor=none;fillColor=none;align=left;verticalAlign=top;spacingLeft=4;spacingRight=4;overflow=hidden;rotatable=0;points=[[0,0.5],[1,0.5]];portConstraint=eastwest;fontColor=#E4FDE1;" parent="RYEuACBHmjROumvNC1AI-13" vertex="1">
          <mxGeometry y="52" width="150" height="38" as="geometry" />
        </mxCell>
        <mxCell id="RYEuACBHmjROumvNC1AI-17" value="Check Kafka Broker" style="rhombus;whiteSpace=wrap;html=1;fillColor=#F45B69;strokeColor=#028090;fontColor=#E4FDE1;" parent="1" vertex="1">
          <mxGeometry x="355" y="250" width="100" height="100" as="geometry" />
        </mxCell>
        <mxCell id="RYEuACBHmjROumvNC1AI-21" value="" style="endArrow=classic;html=1;exitX=0.5;exitY=1;exitDx=0;exitDy=0;labelBackgroundColor=#114B5F;strokeColor=#028090;fontColor=#E4FDE1;" parent="1" edge="1">
          <mxGeometry relative="1" as="geometry">
            <mxPoint x="405" y="350" as="sourcePoint" />
            <mxPoint x="405" y="450" as="targetPoint" />
          </mxGeometry>
        </mxCell>
        <mxCell id="RYEuACBHmjROumvNC1AI-22" value="No" style="edgeLabel;resizable=0;html=1;align=center;verticalAlign=middle;labelBackgroundColor=#114B5F;fontColor=#E4FDE1;" parent="RYEuACBHmjROumvNC1AI-21" connectable="0" vertex="1">
          <mxGeometry relative="1" as="geometry" />
        </mxCell>
        <mxCell id="RYEuACBHmjROumvNC1AI-23" value="List" style="swimlane;fontStyle=0;childLayout=stackLayout;horizontal=1;startSize=26;horizontalStack=0;resizeParent=1;resizeParentMax=0;resizeLast=0;collapsible=1;marginBottom=0;fillColor=#F45B69;strokeColor=#028090;fontColor=#E4FDE1;" parent="1" vertex="1">
          <mxGeometry x="330" y="450" width="150" height="90" as="geometry" />
        </mxCell>
        <mxCell id="RYEuACBHmjROumvNC1AI-24" value="module would do nothing" style="text;strokeColor=none;fillColor=none;align=left;verticalAlign=top;spacingLeft=4;spacingRight=4;overflow=hidden;rotatable=0;points=[[0,0.5],[1,0.5]];portConstraint=eastwest;fontColor=#E4FDE1;" parent="RYEuACBHmjROumvNC1AI-23" vertex="1">
          <mxGeometry y="26" width="150" height="26" as="geometry" />
        </mxCell>
        <mxCell id="RYEuACBHmjROumvNC1AI-25" value="It will log the error." style="text;strokeColor=none;fillColor=none;align=left;verticalAlign=top;spacingLeft=4;spacingRight=4;overflow=hidden;rotatable=0;points=[[0,0.5],[1,0.5]];portConstraint=eastwest;fontColor=#E4FDE1;" parent="RYEuACBHmjROumvNC1AI-23" vertex="1">
          <mxGeometry y="52" width="150" height="38" as="geometry" />
        </mxCell>
        <mxCell id="RYEuACBHmjROumvNC1AI-26" value="" style="endArrow=classic;html=1;entryX=0;entryY=0.5;entryDx=0;entryDy=0;labelBackgroundColor=#114B5F;strokeColor=#028090;fontColor=#E4FDE1;" parent="1" target="RYEuACBHmjROumvNC1AI-28" edge="1">
          <mxGeometry relative="1" as="geometry">
            <mxPoint x="455" y="299.5" as="sourcePoint" />
            <mxPoint x="555" y="299.5" as="targetPoint" />
          </mxGeometry>
        </mxCell>
        <mxCell id="RYEuACBHmjROumvNC1AI-27" value="Yes" style="edgeLabel;resizable=0;html=1;align=center;verticalAlign=middle;labelBackgroundColor=#114B5F;fontColor=#E4FDE1;" parent="RYEuACBHmjROumvNC1AI-26" connectable="0" vertex="1">
          <mxGeometry relative="1" as="geometry" />
        </mxCell>
        <mxCell id="RYEuACBHmjROumvNC1AI-28" value="Prepare queue logs as per the format" style="rounded=1;whiteSpace=wrap;html=1;fillColor=#F45B69;strokeColor=#028090;fontColor=#E4FDE1;" parent="1" vertex="1">
          <mxGeometry x="560" y="270" width="120" height="60" as="geometry" />
        </mxCell>
        <mxCell id="RYEuACBHmjROumvNC1AI-31" value="Log will be pushed to Kafka broker." style="ellipse;whiteSpace=wrap;html=1;fillColor=#F45B69;strokeColor=#028090;fontColor=#E4FDE1;" parent="1" vertex="1">
          <mxGeometry x="570" y="450" width="120" height="80" as="geometry" />
        </mxCell>
        <mxCell id="RYEuACBHmjROumvNC1AI-32" value="" style="endArrow=classic;html=1;exitX=0.567;exitY=1.033;exitDx=0;exitDy=0;exitPerimeter=0;entryX=0.5;entryY=0;entryDx=0;entryDy=0;labelBackgroundColor=#114B5F;strokeColor=#028090;fontColor=#E4FDE1;" parent="1" source="RYEuACBHmjROumvNC1AI-28" target="RYEuACBHmjROumvNC1AI-31" edge="1">
          <mxGeometry width="50" height="50" relative="1" as="geometry">
            <mxPoint x="520" y="360" as="sourcePoint" />
            <mxPoint x="630" y="440" as="targetPoint" />
          </mxGeometry>
        </mxCell>
        <mxCell id="RYEuACBHmjROumvNC1AI-33" value="Drupal Logger Service" style="rounded=1;whiteSpace=wrap;html=1;fillColor=#F45B69;strokeColor=#028090;fontColor=#E4FDE1;" parent="1" vertex="1">
          <mxGeometry x="145" y="10" width="120" height="60" as="geometry" />
        </mxCell>
        <mxCell id="RYEuACBHmjROumvNC1AI-34" value="" style="endArrow=classic;html=1;labelBackgroundColor=#114B5F;strokeColor=#028090;fontColor=#E4FDE1;" parent="1" edge="1">
          <mxGeometry relative="1" as="geometry">
            <mxPoint x="205" y="70" as="sourcePoint" />
            <mxPoint x="204.5" y="130" as="targetPoint" />
          </mxGeometry>
        </mxCell>
        <mxCell id="RYEuACBHmjROumvNC1AI-36" value="Extends" style="edgeLabel;html=1;align=center;verticalAlign=middle;resizable=0;points=[];fontColor=#E4FDE1;labelBackgroundColor=none;" parent="RYEuACBHmjROumvNC1AI-34" vertex="1" connectable="0">
          <mxGeometry x="-0.2328" y="-2" relative="1" as="geometry">
            <mxPoint as="offset" />
          </mxGeometry>
        </mxCell>
      </root>
    </mxGraphModel>
  </diagram>
</mxfile>
